<svg width="39" height="39" viewBox="0 0 39 39" fill="none" xmlns="http://www.w3.org/2000/svg">
<g filter="url(#filter0_d_204_124)">
<path fill-rule="evenodd" clip-rule="evenodd" d="M7.70709 0.707153C7.31659 0.316528 6.68341 0.316528 6.29291 0.707153L4.87869 2.12134C4.48816 2.51184 4.48816 3.14502 4.87869 3.53552L16.8137 15.4706L4.70709 27.5771C4.31659 27.9678 4.31659 28.6008 4.70709 28.9915L6.12131 30.4056C6.51184 30.7961 7.14502 30.7961 7.53552 30.4056L19.6422 18.299L31.7487 30.4056C32.1393 30.7961 32.7724 30.7961 33.163 30.4056L34.5772 28.9913C34.9677 28.6008 34.9677 27.9677 34.5772 27.5771L22.4706 15.4706L34.4056 3.53552C34.7961 3.14502 34.7961 2.51184 34.4056 2.12134L32.9914 0.707153C32.6009 0.31665 31.9677 0.31665 31.5772 0.707153L19.6422 12.6422L7.70709 0.707153Z" fill="white"/>
</g>
<defs>
<filter id="filter0_d_204_124" x="0.414215" y="0.414185" width="38.4558" height="38.2843" filterUnits="userSpaceOnUse" color-interpolation-filters="sRGB">
<feFlood flood-opacity="0" result="BackgroundImageFix"/>
<feColorMatrix in="SourceAlpha" type="matrix" values="0 0 0 0 0 0 0 0 0 0 0 0 0 0 0 0 0 0 127 0" result="hardAlpha"/>
<feOffset dy="4"/>
<feGaussianBlur stdDeviation="2"/>
<feComposite in2="hardAlpha" operator="out"/>
<feColorMatrix type="matrix" values="0 0 0 0 0 0 0 0 0 0 0 0 0 0 0 0 0 0 0.45 0"/>
<feBlend mode="normal" in2="BackgroundImageFix" result="effect1_dropShadow_204_124"/>
<feBlend mode="normal" in="SourceGraphic" in2="effect1_dropShadow_204_124" result="shape"/>
</filter>
</defs>
</svg>
